<?xml version="1.0" encoding="utf-8"?>
<!-- Generator: Adobe Illustrator 21.0.0, SVG Export Plug-In . SVG Version: 6.00 Build 0)  -->
<svg version="1.1" id="Layer_1" xmlns="http://www.w3.org/2000/svg" xmlns:xlink="http://www.w3.org/1999/xlink" x="0px" y="0px"
	 viewBox="0 0 761.9 126.2" style="enable-background:new 0 0 761.9 126.2;" xml:space="preserve">
<style type="text/css">
	.st0{fill:#003F54;}
	.st1{fill:#6666FF;}
	.st2{fill:#FF3333;}
	.st3{fill:#33CC99;}
	.st4{fill:#0073AE;}
</style>
<g>
	<g>
		<path class="st0" d="M420.3,20.8h14.3v84.6h-14.3V20.8z"/>
		<path class="st0" d="M449.3,38.8h14.1v7c3.2-4.2,7.4-8,14.5-8c10.7,0,16.9,7,16.9,18.4v32.1h-14.1V60.7c0-6.7-3.2-10.1-8.5-10.1
			c-5.4,0-8.8,3.4-8.8,10.1v27.7h-14.1V38.8z"/>
		<path class="st0" d="M521.1,81.9v6.5H507V20.8h14.1v25.1c3.4-4.6,8.1-8.1,15.5-8.1c11.6,0,22.6,9.1,22.6,25.7v0.2
			c0,16.6-10.8,25.6-22.6,25.6C529,89.3,524.4,85.9,521.1,81.9z M545,63.7v-0.2c0-8.2-5.6-13.7-12.1-13.7c-6.6,0-12,5.5-12,13.7v0.2
			c0,8.2,5.5,13.7,12,13.7C539.5,77.4,545,72,545,63.7z"/>
		<path class="st0" d="M567.1,63.9v-0.2c0-14.3,11.5-25.8,26.9-25.8c15.4,0,26.8,11.4,26.8,25.7v0.2c0,14.3-11.5,25.8-26.9,25.8
			C578.5,89.5,567.1,78.1,567.1,63.9z M606.9,63.9v-0.2c0-7.3-5.3-13.7-13-13.7c-8.1,0-12.9,6.2-12.9,13.5v0.2
			c0,7.3,5.3,13.7,13.1,13.7C602.1,77.4,606.9,71.2,606.9,63.9z"/>
		<path class="st0" d="M641,63.2l-16.8-24.4h15.1l9.3,14.4l9.4-14.4h14.7l-16.8,24.2l17.5,25.5h-15.1l-10-15.5l-10,15.5h-14.7
			L641,63.2z"/>
	</g>
	<g>
		<rect x="681.7" y="39.2" class="st1" width="22.2" height="8.4"/>
	</g>
	<g>
		<rect x="681.7" y="79.5" class="st2" width="57" height="8.4"/>
	</g>
	<g>
		<rect x="681.7" y="59.3" class="st3" width="39.6" height="8.4"/>
	</g>
	<g>
		<g>
			<path class="st4" d="M113.4,68.4h17.6L122,49.8L113.4,68.4L113.4,68.4z M113.1,38.3H131l24.6,49.6h-15.3l-4.3-8.8h-27.9l-4,8.8
				H88.8L113.1,38.3L113.1,38.3z"/>
			<path class="st4" d="M176.8,63h23.6c3.6,0,4.9-2.3,4.9-5.3v-1.9c0-3.4-1.6-5.3-6.2-5.3h-22.3V63L176.8,63z M161.5,38.3H203
				c14.4,0,17.9,7.3,17.9,17v4.2c0,7.4-3.2,15.9-14,15.9h-30.2v12.5h-15.2V38.3L161.5,38.3z"/>
			<polygon class="st4" points="303,38.3 318.2,38.3 318.2,87.8 303,87.8 303,38.3 			"/>
			<polygon class="st4" points="331.1,38.3 354.5,38.3 368.4,70.2 382.4,38.3 405.7,38.3 405.7,87.8 390.9,87.8 390.9,52.2 
				390.8,52.2 374.1,87.8 362.7,87.8 346,52.2 345.9,52.2 345.9,87.8 331.1,87.8 331.1,38.3 			"/>
			<path class="st4" d="M262.7,57c-16.3,0.1-18.1-0.1-18.1-4.4c0-2.7,2.3-3.8,5.8-3.8h16.8c6.1,0,7.2,1.2,7.4,3.9h15.2v-0.3
				c0-8.7-1.6-14.7-19.2-14.7h-21.2c-19.2,0-20,6.9-20,15.9c0,12.2,2.6,14.9,25.5,14.9c19.6,0,21.4,0.3,21.4,4.6
				c0,3.8-3.3,4.2-6.5,4.2h-18.6c-3.7,0-5.8-0.3-6.4-3.6h-15.4V75c0,10.8,5.5,13.4,19.4,13.4h18.4c20.2,0,24.7-2.2,24.7-15.5
				C291.8,58.4,286.3,57,262.7,57"/>
			<path class="st4" d="M69.8,71.8c-0.7,3.4-3.1,3.8-8.6,3.8H44.9c-7.2,0-8.7-2.7-8.7-9.9v-5.3c0-6.2,1.5-9.9,9.5-9.9h16.6
				c4.1,0,6.6,0.9,7,3.7h15.3c-0.2-12.3-3.9-16.4-24.3-16.4H42.4c-13.7,0-21.9,3.4-21.9,17.9v14.8c0,14.5,8.2,17.9,21.9,17.9H67
				c15.3,0,18.3-6.6,18.3-14.9v-1.7H69.8L69.8,71.8z"/>
		</g>
	</g>
</g>
</svg>
